<svg width="24" height="24" viewBox="0 0 24 24" fill="none" xmlns="http://www.w3.org/2000/svg">
<mask id="mask0_1069_7188" style="mask-type:alpha" maskUnits="userSpaceOnUse" x="0" y="0" width="24" height="24">
<rect width="24" height="24" fill="#6B6B6C"/>
</mask>
<g mask="url(#mask0_1069_7188)">
<path d="M16.55 22.5L13 18.95L14.4 17.55L16.525 19.675L20.775 15.425L22.175 16.85L16.55 22.5ZM7.4 17L6 15.6L7.6 14L6 12.4L7.4 11L9 12.6L10.6 11L12 12.4L10.4 14L12 15.6L10.6 17L9 15.4L7.4 17ZM5 22C4.45 22 3.97917 21.8042 3.5875 21.4125C3.19583 21.0208 3 20.55 3 20V6C3 5.45 3.19583 4.97917 3.5875 4.5875C3.97917 4.19583 4.45 4 5 4H6V2H8V4H16V2H18V4H19C19.55 4 20.0208 4.19583 20.4125 4.5875C20.8042 4.97917 21 5.45 21 6V12.35L19 14.375V10H5V20H11.25L13.225 22H5ZM5 8H19V6H5V8Z" fill="#6B6B6C"/>
</g>
</svg>
