<svg width="32" height="32" viewBox="0 0 32 32" fill="none" xmlns="http://www.w3.org/2000/svg">
<mask id="mask0_1069_7213" style="mask-type:alpha" maskUnits="userSpaceOnUse" x="0" y="0" width="32" height="32">
<rect width="32" height="32" fill="#D9D9D9"/>
</mask>
<g mask="url(#mask0_1069_7213)">
<path d="M7.79984 22.8001C8.93317 21.9334 10.1998 21.2501 11.5998 20.7501C12.9998 20.2501 14.4665 20.0001 15.9998 20.0001C17.5332 20.0001 18.9998 20.2501 20.3998 20.7501C21.7998 21.2501 23.0665 21.9334 24.1998 22.8001C24.9776 21.889 25.5832 20.8556 26.0165 19.7001C26.4498 18.5445 26.6665 17.3112 26.6665 16.0001C26.6665 13.0445 25.6276 10.5279 23.5498 8.45008C21.4721 6.3723 18.9554 5.33341 15.9998 5.33341C13.0443 5.33341 10.5276 6.3723 8.44984 8.45008C6.37206 10.5279 5.33317 13.0445 5.33317 16.0001C5.33317 17.3112 5.54984 18.5445 5.98317 19.7001C6.4165 20.8556 7.02206 21.889 7.79984 22.8001ZM15.9998 17.3334C14.6887 17.3334 13.5832 16.8834 12.6832 15.9834C11.7832 15.0834 11.3332 13.9779 11.3332 12.6667C11.3332 11.3556 11.7832 10.2501 12.6832 9.35008C13.5832 8.45008 14.6887 8.00008 15.9998 8.00008C17.3109 8.00008 18.4165 8.45008 19.3165 9.35008C20.2165 10.2501 20.6665 11.3556 20.6665 12.6667C20.6665 13.9779 20.2165 15.0834 19.3165 15.9834C18.4165 16.8834 17.3109 17.3334 15.9998 17.3334ZM15.9998 29.3334C14.1554 29.3334 12.4221 28.9834 10.7998 28.2834C9.17761 27.5834 7.7665 26.6334 6.5665 25.4334C5.3665 24.2334 4.4165 22.8223 3.7165 21.2001C3.0165 19.5779 2.6665 17.8445 2.6665 16.0001C2.6665 14.1556 3.0165 12.4223 3.7165 10.8001C4.4165 9.17786 5.3665 7.76675 6.5665 6.56675C7.7665 5.36675 9.17761 4.41675 10.7998 3.71675C12.4221 3.01675 14.1554 2.66675 15.9998 2.66675C17.8443 2.66675 19.5776 3.01675 21.1998 3.71675C22.8221 4.41675 24.2332 5.36675 25.4332 6.56675C26.6332 7.76675 27.5832 9.17786 28.2832 10.8001C28.9832 12.4223 29.3332 14.1556 29.3332 16.0001C29.3332 17.8445 28.9832 19.5779 28.2832 21.2001C27.5832 22.8223 26.6332 24.2334 25.4332 25.4334C24.2332 26.6334 22.8221 27.5834 21.1998 28.2834C19.5776 28.9834 17.8443 29.3334 15.9998 29.3334ZM15.9998 26.6667C17.1776 26.6667 18.2887 26.4945 19.3332 26.1501C20.3776 25.8056 21.3332 25.3112 22.1998 24.6667C21.3332 24.0223 20.3776 23.5279 19.3332 23.1834C18.2887 22.839 17.1776 22.6667 15.9998 22.6667C14.8221 22.6667 13.7109 22.839 12.6665 23.1834C11.6221 23.5279 10.6665 24.0223 9.79984 24.6667C10.6665 25.3112 11.6221 25.8056 12.6665 26.1501C13.7109 26.4945 14.8221 26.6667 15.9998 26.6667ZM15.9998 14.6667C16.5776 14.6667 17.0554 14.4779 17.4332 14.1001C17.8109 13.7223 17.9998 13.2445 17.9998 12.6667C17.9998 12.089 17.8109 11.6112 17.4332 11.2334C17.0554 10.8556 16.5776 10.6667 15.9998 10.6667C15.4221 10.6667 14.9443 10.8556 14.5665 11.2334C14.1887 11.6112 13.9998 12.089 13.9998 12.6667C13.9998 13.2445 14.1887 13.7223 14.5665 14.1001C14.9443 14.4779 15.4221 14.6667 15.9998 14.6667Z" fill="#1C1B1F"/>
</g>
</svg>
