<svg width="29" height="29" viewBox="0 0 29 29" fill="none" xmlns="http://www.w3.org/2000/svg">
<mask id="mask0_1069_7148" style="mask-type:alpha" maskUnits="userSpaceOnUse" x="0" y="0" width="29" height="29">
<rect width="29" height="29" fill="#655D5D"/>
</mask>
<g mask="url(#mask0_1069_7148)">
<path d="M4.83317 25.3751C4.16859 25.3751 3.59966 25.1385 3.1264 24.6652C2.65314 24.1919 2.4165 23.623 2.4165 22.9584V9.66675C2.4165 9.00216 2.65314 8.43324 3.1264 7.95998C3.59966 7.48671 4.16859 7.25008 4.83317 7.25008H9.6665V4.83341C9.6665 4.16883 9.90314 3.59991 10.3764 3.12664C10.8497 2.65338 11.4186 2.41675 12.0832 2.41675H16.9165C17.5811 2.41675 18.15 2.65338 18.6233 3.12664C19.0965 3.59991 19.3332 4.16883 19.3332 4.83341V7.25008H24.1665C24.8311 7.25008 25.4 7.48671 25.8733 7.95998C26.3465 8.43324 26.5832 9.00216 26.5832 9.66675V22.9584C26.5832 23.623 26.3465 24.1919 25.8733 24.6652C25.4 25.1385 24.8311 25.3751 24.1665 25.3751H4.83317ZM12.0832 7.25008H16.9165V4.83341H12.0832V7.25008ZM24.1665 18.1251H18.1248V20.5417H10.8748V18.1251H4.83317V22.9584H24.1665V18.1251ZM13.2915 18.1251H15.7082V15.7084H13.2915V18.1251ZM4.83317 15.7084H10.8748V13.2917H18.1248V15.7084H24.1665V9.66675H4.83317V15.7084Z" fill="#655D5D"/>
</g>
</svg>
