<svg width="30" height="30" viewBox="0 0 30 30" fill="none" xmlns="http://www.w3.org/2000/svg">
<path d="M11.25 15C13.6625 15 15.625 13.0375 15.625 10.625C15.625 8.2125 13.6625 6.25 11.25 6.25C8.8375 6.25 6.875 8.2125 6.875 10.625C6.875 13.0375 8.8375 15 11.25 15ZM11.25 8.75C12.2875 8.75 13.125 9.5875 13.125 10.625C13.125 11.6625 12.2875 12.5 11.25 12.5C10.2125 12.5 9.375 11.6625 9.375 10.625C9.375 9.5875 10.2125 8.75 11.25 8.75ZM11.25 17.1875C8.325 17.1875 2.5 18.65 2.5 21.5625V23.75H20V21.5625C20 18.65 14.175 17.1875 11.25 17.1875ZM5.425 21.25C6.475 20.525 9.0125 19.6875 11.25 19.6875C13.4875 19.6875 16.025 20.525 17.075 21.25H5.425ZM20.05 17.2625C21.5 18.3125 22.5 19.7125 22.5 21.5625V23.75H27.5V21.5625C27.5 19.0375 23.125 17.6 20.05 17.2625ZM18.75 15C21.1625 15 23.125 13.0375 23.125 10.625C23.125 8.2125 21.1625 6.25 18.75 6.25C18.075 6.25 17.45 6.4125 16.875 6.6875C17.6625 7.8 18.125 9.1625 18.125 10.625C18.125 12.0875 17.6625 13.45 16.875 14.5625C17.45 14.8375 18.075 15 18.75 15Z" fill="#655D5D"/>
</svg>
