<svg width="30" height="30" viewBox="0 0 30 30" fill="none" xmlns="http://www.w3.org/2000/svg">
<g clip-path="url(#clip0_1069_7151)">
<g opacity="0.9">
<path d="M15 1.5C8.1 1.5 2.5 7.1 2.5 14C2.5 20.9 8.1 26.5 15 26.5H25C26.375 26.5 27.5 25.375 27.5 24V14C27.5 7.1 21.9 1.5 15 1.5ZM15 24C11.3875 24 8.2125 22.075 6.4625 19.2L10.15 15.5125L14.2625 19L20 13.275V15.25H22.5V9H16.25V11.5H18.225L14.125 15.6L10 12.125L5.3875 16.75C5.1375 15.875 5 14.95 5 14C5 8.4875 9.4875 4 15 4C20.5125 4 25 8.4875 25 14C25 19.5125 20.5125 24 15 24ZM24.375 24.625C23.6875 24.625 23.125 24.0625 23.125 23.375C23.125 22.6875 23.6875 22.125 24.375 22.125C25.0625 22.125 25.625 22.6875 25.625 23.375C25.625 24.0625 25.0625 24.625 24.375 24.625Z" fill="#544C4C"/>
</g>
</g>
<defs>
<clipPath id="clip0_1069_7151">
<rect width="30" height="30" fill="white"/>
</clipPath>
</defs>
</svg>
