<svg width="31" height="31" viewBox="0 0 31 31" fill="none" xmlns="http://www.w3.org/2000/svg">
<mask id="mask0_1069_7166" style="mask-type:alpha" maskUnits="userSpaceOnUse" x="0" y="0" width="31" height="31">
<rect x="0.643555" y="0.134277" width="30" height="30" fill="#544C4C"/>
</mask>
<g mask="url(#mask0_1069_7166)">
<path d="M6.89355 18.8843C5.85189 18.8843 4.96647 18.5197 4.2373 17.7905C3.50814 17.0614 3.14355 16.1759 3.14355 15.1343C3.14355 14.0926 3.50814 13.2072 4.2373 12.478C4.96647 11.7489 5.85189 11.3843 6.89355 11.3843C7.93522 11.3843 8.82064 11.7489 9.5498 12.478C10.279 13.2072 10.6436 14.0926 10.6436 15.1343C10.6436 16.1759 10.279 17.0614 9.5498 17.7905C8.82064 18.5197 7.93522 18.8843 6.89355 18.8843ZM6.89355 16.3843C7.24772 16.3843 7.5446 16.2645 7.78418 16.0249C8.02376 15.7853 8.14355 15.4884 8.14355 15.1343C8.14355 14.7801 8.02376 14.4832 7.78418 14.2437C7.5446 14.0041 7.24772 13.8843 6.89355 13.8843C6.53939 13.8843 6.24251 14.0041 6.00293 14.2437C5.76335 14.4832 5.64355 14.7801 5.64355 15.1343C5.64355 15.4884 5.76335 15.7853 6.00293 16.0249C6.24251 16.2645 6.53939 16.3843 6.89355 16.3843ZM15.6436 18.8843C14.6019 18.8843 13.7165 18.5197 12.9873 17.7905C12.2581 17.0614 11.8936 16.1759 11.8936 15.1343C11.8936 14.0926 12.2581 13.2072 12.9873 12.478C13.7165 11.7489 14.6019 11.3843 15.6436 11.3843C16.6852 11.3843 17.5706 11.7489 18.2998 12.478C19.029 13.2072 19.3936 14.0926 19.3936 15.1343C19.3936 16.1759 19.029 17.0614 18.2998 17.7905C17.5706 18.5197 16.6852 18.8843 15.6436 18.8843ZM15.6436 16.3843C15.9977 16.3843 16.2946 16.2645 16.5342 16.0249C16.7738 15.7853 16.8936 15.4884 16.8936 15.1343C16.8936 14.7801 16.7738 14.4832 16.5342 14.2437C16.2946 14.0041 15.9977 13.8843 15.6436 13.8843C15.2894 13.8843 14.9925 14.0041 14.7529 14.2437C14.5133 14.4832 14.3936 14.7801 14.3936 15.1343C14.3936 15.4884 14.5133 15.7853 14.7529 16.0249C14.9925 16.2645 15.2894 16.3843 15.6436 16.3843ZM24.3936 18.8843C23.3519 18.8843 22.4665 18.5197 21.7373 17.7905C21.0081 17.0614 20.6436 16.1759 20.6436 15.1343C20.6436 14.0926 21.0081 13.2072 21.7373 12.478C22.4665 11.7489 23.3519 11.3843 24.3936 11.3843C25.4352 11.3843 26.3206 11.7489 27.0498 12.478C27.779 13.2072 28.1436 14.0926 28.1436 15.1343C28.1436 16.1759 27.779 17.0614 27.0498 17.7905C26.3206 18.5197 25.4352 18.8843 24.3936 18.8843Z" fill="#645C5B"/>
</g>
</svg>
