<svg width="35" height="35" viewBox="0 0 35 35" fill="none" xmlns="http://www.w3.org/2000/svg">
<mask id="mask0_1069_7336" style="mask-type:alpha" maskUnits="userSpaceOnUse" x="0" y="0" width="35" height="35">
<rect x="0.571289" y="0.571411" width="34.2857" height="34.2857" fill="#F6F1EB"/>
</mask>
<g mask="url(#mask0_1069_7336)">
<path d="M7.71408 27.7143H9.71408L22.0355 15.3929L20.0355 13.3929L7.71408 25.7143V27.7143ZM28.1426 13.3214L22.0712 7.32143L24.0712 5.32143C24.6188 4.77381 25.2915 4.5 26.0891 4.5C26.8867 4.5 27.5593 4.77381 28.1069 5.32143L30.1069 7.32143C30.6546 7.86905 30.9403 8.52976 30.9641 9.30357C30.9879 10.0774 30.726 10.7381 30.1784 11.2857L28.1426 13.3214ZM26.0712 15.4286L10.9284 30.5714H4.85693V24.5L19.9998 9.35714L26.0712 15.4286Z" fill="#F6F1EB"/>
</g>
</svg>
