<svg width="62" height="46" viewBox="0 0 62 46" fill="none" xmlns="http://www.w3.org/2000/svg">
<path d="M21.7 23C27.683 23 32.55 17.8414 32.55 11.5C32.55 5.15857 27.683 0 21.7 0C15.717 0 10.85 5.15857 10.85 11.5C10.85 17.8414 15.717 23 21.7 23ZM21.7 6.57143C24.273 6.57143 26.35 8.77286 26.35 11.5C26.35 14.2271 24.273 16.4286 21.7 16.4286C19.127 16.4286 17.05 14.2271 17.05 11.5C17.05 8.77286 19.127 6.57143 21.7 6.57143ZM21.7 28.75C14.446 28.75 0 32.5943 0 40.25V46H43.4V40.25C43.4 32.5943 28.954 28.75 21.7 28.75ZM7.254 39.4286C9.858 37.5229 16.151 35.3214 21.7 35.3214C27.249 35.3214 33.542 37.5229 36.146 39.4286H7.254ZM43.524 28.9471C47.12 31.7071 49.6 35.3871 49.6 40.25V46H62V40.25C62 33.6129 51.15 29.8343 43.524 28.9471ZM40.3 23C46.283 23 51.15 17.8414 51.15 11.5C51.15 5.15857 46.283 0 40.3 0C38.626 0 37.076 0.427143 35.65 1.15C37.603 4.07429 38.75 7.65571 38.75 11.5C38.75 15.3443 37.603 18.9257 35.65 21.85C37.076 22.5729 38.626 23 40.3 23Z" fill="#4A4A4B"/>
</svg>
