<svg width="29" height="29" viewBox="0 0 29 29" fill="none" xmlns="http://www.w3.org/2000/svg">
<mask id="mask0_1069_7180" style="mask-type:alpha" maskUnits="userSpaceOnUse" x="0" y="0" width="29" height="29">
<rect width="29" height="29" fill="#676564"/>
</mask>
<g mask="url(#mask0_1069_7180)">
<path d="M4.83317 25.3751C4.16859 25.3751 3.59966 25.1385 3.1264 24.6652C2.65314 24.1919 2.4165 23.623 2.4165 22.9584V9.66675C2.4165 9.00216 2.65314 8.43324 3.1264 7.95998C3.59966 7.48671 4.16859 7.25008 4.83317 7.25008H9.6665V4.83341C9.6665 4.16883 9.90314 3.59991 10.3764 3.12664C10.8497 2.65338 11.4186 2.41675 12.0832 2.41675H16.9165C17.5811 2.41675 18.15 2.65338 18.6233 3.12664C19.0965 3.59991 19.3332 4.16883 19.3332 4.83341V7.25008H24.1665C24.8311 7.25008 25.4 7.48671 25.8733 7.95998C26.3465 8.43324 26.5832 9.00216 26.5832 9.66675V14.8324C26.2207 14.5706 25.838 14.344 25.4353 14.1527C25.0325 13.9614 24.6096 13.7952 24.1665 13.6542V9.66675H4.83317V22.9584H13.3821C13.4425 23.3813 13.5332 23.7942 13.654 24.197C13.7748 24.5997 13.9259 24.9924 14.1071 25.3751H4.83317ZM12.0832 7.25008H16.9165V4.83341H12.0832V7.25008ZM21.7498 27.7917C20.0783 27.7917 18.6535 27.2027 17.4754 26.0246C16.2972 24.8464 15.7082 23.4216 15.7082 21.7501C15.7082 20.0786 16.2972 18.6537 17.4754 17.4756C18.6535 16.2975 20.0783 15.7084 21.7498 15.7084C23.4214 15.7084 24.8462 16.2975 26.0243 17.4756C27.2024 18.6537 27.7915 20.0786 27.7915 21.7501C27.7915 23.4216 27.2024 24.8464 26.0243 26.0246C24.8462 27.2027 23.4214 27.7917 21.7498 27.7917ZM22.354 21.5084V18.1251H21.1457V21.9917L23.7436 24.5897L24.5894 23.7438L22.354 21.5084Z" fill="#676564"/>
</g>
</svg>
